# xmcd CD database file
#
# Track frame offsets:
#	150
#	7425
#	51235
#	84267
#	128416
#	161049
#	193025
#	222268
#
# Disc length: 3774 seconds
#
# Revision: 0
# Processed by: cddbd v1.5.2PL0 Copyright (c) Steve Scherf et al.
# Submitted via: CDex 1.70beta2
#
DISCID=6a0ebc08
DTITLE=Wayne Escoffery - Veneration
DYEAR=2007
DGENRE=Jazz
TTITLE0=Locke's Vibe
TTITLE1=I Waited For You
TTITLE2=Bee Vamp
TTITLE3=Skydive
TTITLE4=Tell Me Why
TTITLE5=Looking Ahead
TTITLE6=Isfahan
TTITLE7=Melody For Melonae
EXTD=YEAR: 2007
EXTT0=
EXTT1=
EXTT2=
EXTT3=
EXTT4=
EXTT5=
EXTT6=
EXTT7=
PLAYORDER=
